Coordinates
version=1
nRows=65
nColumns=12
inDegrees=yes

Units are S.I. units (second, meters, Newtons, ...)
Angles are in degrees

endheader
time	SC_y	SC_z	SC_x	AC_y	AC_z	AC_x	GH_y	GH_z	GH_yy	EL_x	PS_y
       0.0              -25.98        0.03853          78.53          66.19          3.557          7.562           25.6         -4.605         -134.1          58.94          22.92
    0.0034              -25.99        0.03804          78.52          66.19          3.554           7.56          25.61         -4.593         -134.1          58.94          22.93
    0.0068              -25.99        0.03752          78.51          66.19          3.552          7.557          25.63         -4.581         -134.1          58.95          22.95
    0.0102              -25.99        0.03697           78.5          66.19          3.549          7.553          25.65         -4.569         -134.0          58.95          22.97
    0.0136              -25.99        0.03638          78.49          66.19          3.546           7.55          25.67         -4.555         -134.0          58.96          22.99
     0.017               -26.0        0.03576          78.47          66.19          3.543          7.546          25.69          -4.54         -134.0          58.96          23.02
    0.0204               -26.0        0.03509          78.46          66.18          3.539          7.543          25.71         -4.525         -133.9          58.97          23.04
    0.0238               -26.0        0.03438          78.45          66.18          3.536          7.538          25.73         -4.508         -133.9          58.97          23.07
    0.0272              -26.01        0.03361          78.43          66.18          3.532          7.534          25.76         -4.491         -133.8          58.98          23.09
    0.0306              -26.01        0.03279          78.42          66.18          3.528          7.529          25.78         -4.472         -133.7          58.98          23.12
     0.034              -26.02        0.03191           78.4          66.18          3.523          7.524          25.81         -4.451         -133.7          58.99          23.15
    0.0374              -26.02        0.03096          78.38          66.18          3.518          7.519          25.84         -4.429         -133.6          58.99          23.19
    0.0408              -26.03        0.02994          78.37          66.18          3.513          7.513          25.87         -4.405         -133.5           59.0          23.22
    0.0442              -26.03        0.02884          78.34          66.17          3.507          7.507          25.91          -4.38         -133.5          59.01          23.26
    0.0476              -26.04        0.02764          78.32          66.17          3.501            7.5          25.94         -4.352         -133.4          59.02           23.3
     0.051              -26.05        0.02635           78.3          66.17          3.495          7.492          25.99         -4.322         -133.3          59.03          23.35
    0.0544              -26.05        0.02494          78.27          66.17          3.487          7.484          26.03         -4.289         -133.2          59.04           23.4
    0.0578              -26.06        0.02341          78.24          66.17           3.48          7.475          26.08         -4.253         -133.1          59.05          23.46
    0.0612              -26.07        0.02173          78.21          66.16          3.471          7.466          26.13         -4.214         -133.0          59.06          23.52
    0.0646              -26.08         0.0199          78.18          66.16          3.462          7.455          26.19         -4.172         -132.8          59.07          23.58
     0.068              -26.09        0.01788          78.14          66.16          3.451          7.444          26.25         -4.125         -132.7          59.09          23.65
    0.0714               -26.1        0.01567           78.1          66.16           3.44          7.431          26.32         -4.074         -132.6           59.1          23.73
    0.0748              -26.11        0.01322          78.05          66.15          3.427          7.417           26.4         -4.017         -132.4          59.12          23.82
    0.0782              -26.13        0.01051           78.0          66.15          3.414          7.401          26.49         -3.954         -132.2          59.14          23.91
    0.0816              -26.14       0.007494          77.95          66.14          3.398          7.384          26.58         -3.884         -132.0          59.16          24.02
     0.085              -26.16       0.004129          77.88          66.14          3.381          7.364          26.69         -3.805         -131.7          59.19          24.14
    0.0884              -26.18      0.0003609          77.81          66.13          3.362          7.343          26.81         -3.718         -131.5          59.21          24.28
    0.0918               -26.2      -0.003878          77.73          66.13           3.34          7.318          26.94         -3.619         -131.2          59.24          24.43
    0.0952              -26.23      -0.008669          77.64          66.12          3.315          7.291           27.1         -3.508         -130.9          59.28           24.6
    0.0986              -26.26       -0.01411          77.54          66.11          3.288          7.259          27.27         -3.381         -130.5          59.32          24.79
     0.102              -26.29       -0.02032          77.43           66.1          3.256          7.224          27.47         -3.237         -130.0          59.36          25.01
    0.1054              -26.33       -0.02744          77.29          66.09          3.219          7.183          27.69         -3.072         -129.6          59.41          25.27
    0.1088              -26.37       -0.03566          77.14          66.08          3.177          7.135          27.95          -2.88         -129.0          59.47          25.56
    0.1122              -26.42       -0.04522          76.96          66.06          3.128           7.08          28.26         -2.658         -128.3          59.54           25.9
    0.1156              -26.48        -0.0564          76.75          66.05          3.071          7.016          28.61         -2.398         -127.5          59.62           26.3
     0.119              -26.55       -0.06959           76.5          66.03          3.004           6.94          29.03         -2.092         -126.6          59.71          26.77
    0.1224              -26.63       -0.08525          76.21          66.01          2.923           6.85          29.53         -1.728         -125.5          59.82          27.32
    0.1258              -26.73         -0.104          75.86          65.98          2.827          6.742          30.12         -1.292         -124.2          59.96          27.99
    0.1292              -26.85        -0.1267          75.44          65.94          2.711          6.611          30.84        -0.7636         -122.6          60.12           28.8
    0.1326              -26.99        -0.1545          74.92           65.9          2.569          6.452          31.72        -0.1186         -120.7          60.31          29.79
     0.136              -27.17        -0.1888          74.28          65.85          2.394          6.254          32.81         0.6775         -118.3          60.56          31.01
    0.1394              -27.39        -0.2315          73.48          65.79          2.175          6.009          34.16           1.67         -115.3          60.86          32.53
    0.1428              -27.68        -0.2853          72.47          65.71            1.9          5.699          35.87          2.921         -111.6          61.25          34.44
    0.1462              -28.03        -0.3537          71.19          65.61          1.549          5.305          38.04           4.51         -106.8          61.73          36.88
    0.1496              -28.49        -0.4412          69.55          65.48          1.101          4.802          40.82          6.545         -100.7          62.36          39.99
     0.153              -29.08        -0.5536          67.45          65.31         0.5262          4.155          44.38          9.156         -92.91          63.16          43.99
    0.1564              -29.83        -0.6971          64.77           65.1        -0.2083          3.329          48.93          12.49         -82.92          64.18           49.1
    0.1598              -30.77        -0.8775           61.4          64.83         -1.132          2.291          54.66          16.69         -70.36          65.46          55.52
    0.1632              -31.92         -1.097          57.28           64.5         -2.258          1.025          61.63           21.8         -55.05          67.03          63.35
    0.1666              -33.25         -1.352          52.52          64.12         -3.562        -0.4414          69.72          27.72          -37.3          68.84          72.42
      0.17               -34.7         -1.628          47.36          63.71         -4.975          -2.03          78.47          34.13         -18.08          70.81          82.25
    0.1734              -36.14         -1.904           42.2           63.3         -6.388         -3.618          87.23          40.55          1.139          72.77          92.07
    0.1768              -37.47         -2.159          37.43          62.92         -7.692         -5.085          95.31          46.47          18.89          74.59          101.1
    0.1802              -38.62         -2.379          33.32          62.59         -8.818          -6.35          102.3          51.58           34.2          76.15          109.0
    0.1836              -39.56          -2.56          29.94          62.33         -9.741         -7.388          108.0          55.78          46.76          77.44          115.4
     0.187              -40.31         -2.703          27.26          62.11         -10.48         -8.214          112.6          59.11          56.76          78.46          120.5
    0.1904               -40.9         -2.815          25.16          61.95         -11.05         -8.861          116.1          61.72          64.58          79.26          124.5
    0.1938              -41.36         -2.903          23.52          61.82          -11.5         -9.365          118.9          63.76          70.68          79.88          127.6
    0.1972              -41.72         -2.971          22.24          61.71         -11.85         -9.758          121.1          65.35          75.44          80.37          130.1
    0.2006               -42.0         -3.025          21.24          61.63         -12.12         -10.07          122.8           66.6          79.19          80.75          132.0
     0.204              -42.22         -3.068          20.44          61.57         -12.34         -10.31          124.1          67.59          82.16          81.05          133.5
    0.2074               -42.4         -3.102           19.8          61.52         -12.52         -10.51          125.2          68.39          84.54           81.3          134.7
    0.2108              -42.54          -3.13          19.28          61.48         -12.66         -10.67          126.1          69.03          86.48           81.5          135.7
    0.2142              -42.66         -3.153          18.85          61.44         -12.78          -10.8          126.8          69.56          88.06          81.66          136.5
    0.2176              -42.76         -3.171           18.5          61.42         -12.87         -10.91          127.4           70.0          89.37          81.79          137.2
